<?xml version="1.0" encoding="utf-8"?><svg width="70" height="86" fill="none" xmlns="http://www.w3.org/2000/svg" viewBox="0 0 70 86"><path fill-rule="evenodd" clip-rule="evenodd" d="M43.268 82.904l20.816-.013-.135-62.969L43.27 4.665v78.24zm6.894-8.69l-.01-51.282 6.559 4.302v46.98h-6.55z" fill="#5E5E5E" stroke="#2B2A29" stroke-width=".651" stroke-miterlimit="22.926"/><path clip-rule="evenodd" d="M30.342 21.002l-13.96 6.25v17.723l13.96-3.425V21.002z" stroke="#2B2A29" stroke-width=".651" stroke-miterlimit="22.926"/><path fill-rule="evenodd" clip-rule="evenodd" d="M16.545 82.986V56.107l24.435-5.222-.02-46.117L4.827 21.856v61.13h11.719zm13.787-61.922l-13.96 6.25v17.722l13.96-3.424V21.064z" fill="#333" stroke="#2B2A29" stroke-width=".651" stroke-miterlimit="22.926"/><path fill-rule="evenodd" clip-rule="evenodd" d="M27.585 64.624l13.385-2.137.004-9.28-22.351 4.566v25.153h22.346v-8.669H27.586v-9.633z" fill="#333" stroke="#2B2A29" stroke-width=".651" stroke-miterlimit="22.926"/><path d="M16.382 27.252l13.96 4.024M56.711 27.232l-6.558 2.227" stroke="#2B2A29" stroke-width=".651" stroke-miterlimit="22.926"/><path d="M.173 21.665L42.235 1l26.526 19.94" stroke="#2B2A29" stroke-width=".517" stroke-miterlimit="22.926"/><path d="M40.973 53.207l4.18-.91" stroke="#2B2A29" stroke-width=".651" stroke-miterlimit="22.926"/><path d="M70 85l-70-.002" stroke="#2B2A29" stroke-width=".517" stroke-miterlimit="22.926"/><path d="M18.623 57.773l-3.349.742M18.623 57.775V54.63M40.973 53.207v-3.67M40.97 74.258h4.237M40.97 62.488l3.978-.709M40.97 62.488v3.123M40.97 74.257v-3.318M56.694 27.137v-2.032M50.102 22.908v-2.053M50.161 74.213H47.73M59.363 74.213h-2.652v2.121M50.161 74.213v1.993M30.342 21.003l2.997-1.347M16.383 27.252l-2.777 1.222M30.342 21.001v-2.716M16.382 27.253v-2.888M30.342 44.228V41.55l2.845-.757M16.382 47.01v-2.035l-2.854.76M47.947 21.54l10.642 6.848" stroke="#2B2A29" stroke-width=".651" stroke-miterlimit="22.926"/></svg>