<?xml version="1.0" encoding="utf-8"?><svg width="29" height="29" fill="none" xmlns="http://www.w3.org/2000/svg" viewBox="0 0 29 29"><path d="M23.59 14.02a.68.68 0 010 .962l-9.296 9.289a6.118 6.118 0 11-8.65-8.654L16.89 4.207a4.305 4.305 0 016.09 6.086L11.735 21.698a2.493 2.493 0 01-3.528-3.522l9.434-9.591a.68.68 0 01.97.954l-9.435 9.596a1.134 1.134 0 001.599 1.606L22.016 9.335a2.946 2.946 0 00-4.162-4.169L6.607 16.571a4.758 4.758 0 106.726 6.734l9.295-9.29a.68.68 0 01.962.005z" fill="currentColor"/></svg>