<?xml version="1.0" encoding="utf-8"?><svg width="20" height="20" fill="none" xmlns="http://www.w3.org/2000/svg" viewBox="0 0 20 20"><path d="M15 18.33a2.41 2.41 0 01-1.77-.728 2.411 2.411 0 01-.73-1.771c0-.098.007-.198.02-.303.015-.104.036-.198.063-.28L6.708 11.83a2.75 2.75 0 01-.791.49 2.402 2.402 0 01-.917.176 2.411 2.411 0 01-1.77-.729 2.41 2.41 0 01-.73-1.77c0-.695.243-1.285.73-1.771A2.41 2.41 0 015 7.497c.32 0 .625.06.917.178.291.118.555.281.791.49l5.875-3.418a1.539 1.539 0 01-.062-.28 2.28 2.28 0 01-.021-.303c0-.694.243-1.285.73-1.77a2.41 2.41 0 011.77-.73 2.41 2.41 0 011.77.73c.487.485.73 1.076.73 1.77 0 .695-.243 1.285-.73 1.77a2.41 2.41 0 01-1.77.73c-.32 0-.625-.059-.917-.177a2.728 2.728 0 01-.791-.49L7.417 9.414c.027.083.048.177.062.282a2.29 2.29 0 010 .604 1.51 1.51 0 01-.062.28l5.875 3.417c.236-.208.5-.371.791-.489a2.44 2.44 0 01.917-.177c.694 0 1.285.243 1.77.729.487.486.73 1.076.73 1.77 0 .695-.243 1.286-.73 1.772a2.41 2.41 0 01-1.77.729z" fill="currentColor"/></svg>