<?xml version="1.0" encoding="utf-8"?><svg width="60" height="60" fill="none" xmlns="http://www.w3.org/2000/svg" viewBox="0 0 60 60"><path d="M30.003 5c13.807 0 25 11.192 25 25 0 13.807-11.193 25-25 25a24.885 24.885 0 01-12.575-3.388L5.013 55l3.38-12.42A24.883 24.883 0 015.003 30c0-13.808 11.192-25 25-25zm-8.52 13.25l-.5.02c-.324.02-.64.105-.93.25a3.233 3.233 0 00-.735.57c-.3.282-.47.527-.652.765a6.825 6.825 0 00-1.416 4.195c.006 1.225.326 2.418.826 3.532 1.022 2.255 2.704 4.643 4.924 6.855.535.533 1.06 1.068 1.625 1.566a23.619 23.619 0 009.6 5.114l1.42.218c.463.025.925-.01 1.39-.032a4.975 4.975 0 002.083-.578c.327-.169.647-.352.957-.55 0 0 .108-.07.313-.225.337-.25.545-.428.825-.72a2.87 2.87 0 00.525-.755c.195-.407.39-1.185.47-1.833.06-.495.043-.765.035-.932-.01-.267-.233-.545-.475-.663l-1.455-.652s-2.175-.948-3.505-1.553a1.242 1.242 0 00-.44-.102 1.205 1.205 0 00-.945.317c-.013-.005-.18.138-1.988 2.328a.875.875 0 01-.92.325 3.572 3.572 0 01-.477-.165c-.31-.13-.417-.18-.63-.27a15.06 15.06 0 01-3.938-2.508c-.314-.275-.607-.575-.907-.865a15.74 15.74 0 01-2.55-3.17l-.148-.237a2.304 2.304 0 01-.255-.512c-.095-.368.153-.663.153-.663s.607-.665.89-1.025c.275-.35.508-.69.658-.933.294-.474.387-.962.232-1.34-.7-1.71-1.425-3.412-2.17-5.102-.148-.335-.585-.575-.983-.623-.134-.015-.27-.03-.405-.04a8.467 8.467 0 00-1.007.01l.505-.017z" fill="#9C9C9C"/></svg>