<?xml version="1.0" encoding="utf-8"?><svg width="60" height="60" fill="none" xmlns="http://www.w3.org/2000/svg" viewBox="0 0 60 60"><path d="M30 5C16.2 5 5 16.2 5 30s11.2 25 25 25 25-11.2 25-25S43.8 5 30 5zm11.6 17c-.375 3.95-2 13.55-2.825 17.975-.35 1.875-1.05 2.5-1.7 2.575-1.45.125-2.55-.95-3.95-1.875-2.2-1.45-3.45-2.35-5.575-3.75-2.475-1.625-.875-2.525.55-3.975.375-.375 6.775-6.2 6.9-6.725a.5.5 0 00-.125-.45c-.15-.125-.35-.075-.525-.05-.225.05-3.725 2.375-10.55 6.975-1 .675-1.9 1.025-2.7 1-.9-.025-2.6-.5-3.875-.925-1.575-.5-2.8-.775-2.7-1.65.05-.45.675-.9 1.85-1.375 7.3-3.175 12.15-5.275 14.575-6.275 6.95-2.9 8.375-3.4 9.325-3.4.2 0 .675.05.975.3.25.2.325.475.35.675-.025.15.025.6 0 .95z" fill="#9C9C9C"/></svg>