<?xml version="1.0" encoding="utf-8"?><svg width="131" height="159" fill="none" xmlns="http://www.w3.org/2000/svg" viewBox="0 0 131 159"><g opacity=".59" stroke="#2B2A29" stroke-miterlimit="22.926"><path fill-rule="evenodd" clip-rule="evenodd" d="M80.973 154.276l38.956-.024-.252-117.841L80.973 7.855v146.421zm12.901-16.263l-.02-95.971 12.276 8.051v87.92H93.874z" fill="#5E5E5E" stroke-width=".651"/><path clip-rule="evenodd" d="M56.782 38.434L30.658 50.13v33.167l26.124-6.409V38.434z" stroke-width=".651"/><path fill-rule="evenodd" clip-rule="evenodd" d="M30.963 154.431v-50.302l45.728-9.773-.036-86.305L9.031 40.03V154.43h21.932zM56.765 38.548L30.64 50.244v33.167l26.125-6.409V38.548z" fill="#333" stroke-width=".651"/><path fill-rule="evenodd" clip-rule="evenodd" d="M51.623 120.069l25.05-3.998.006-17.368-41.827 8.546v47.071l41.818-.001.002-16.222H51.623v-18.028z" fill="#333" stroke-width=".651"/><path d="M30.657 50.129l26.125 7.53M106.13 50.094L93.857 54.26" stroke-width=".651"/><path d="M.323 39.673L79.039 1l49.642 37.315" stroke-width=".517"/><path d="M76.678 98.703L84.502 97" stroke-width=".651"/><path d="M131 158.199l-131-.004" stroke-width=".517"/><path d="M34.852 107.25l-6.267 1.387M34.852 107.25v-5.883M76.678 98.7v-6.868M76.672 138.094h7.93M76.672 116.068l7.445-1.326M76.672 116.07v5.844M76.672 138.099v-6.208M106.099 49.91v-3.8M93.761 41.998v-3.842M93.874 138.016h-4.552M111.094 138.016h-4.964v3.969M93.873 138.016v3.729M56.782 38.434l5.61-2.52M30.659 50.129l-5.195 2.287M56.782 38.43v-5.082M30.657 50.13v-5.403M56.782 81.897v-5.01l5.325-1.418M30.659 87.106v-3.81l-5.343 1.423M89.73 39.438l19.916 12.818" stroke-width=".651"/></g></svg>