<?xml version="1.0" encoding="utf-8"?><svg width="133" height="174" fill="none" xmlns="http://www.w3.org/2000/svg" viewBox="0 0 133 174"><path d="M133 66.5c0 36.727-39 74.5-66.5 107C38 143.5 0 103.227 0 66.5 0 29.773 29.773 0 66.5 0 103.227 0 133 29.773 133 66.5z" fill="#333"/><path fill-rule="evenodd" clip-rule="evenodd" d="M75.268 94.904l20.816-.013-.135-62.969-20.681-15.258v78.24zm6.893-8.69l-.01-51.282 6.56 4.302v46.98h-6.55z" fill="#F8FAFC" stroke="#2B2A29" stroke-width=".651" stroke-miterlimit="22.926"/><path clip-rule="evenodd" d="M62.342 33.004l-13.96 6.25v17.723l13.96-3.425V33.004z" stroke="#2B2A29" stroke-width=".651" stroke-miterlimit="22.926"/><path fill-rule="evenodd" clip-rule="evenodd" d="M48.545 94.984V68.105l24.435-5.222-.019-46.117-36.135 17.088v61.13h11.72zm13.788-61.922l-13.96 6.25v17.723l13.96-3.425V33.062z" fill="#F8FAFC" stroke="#2B2A29" stroke-width=".651" stroke-miterlimit="22.926"/><path fill-rule="evenodd" clip-rule="evenodd" d="M59.585 76.624l13.385-2.137.004-9.28-22.351 4.567v25.152h22.346v-8.669H59.586v-9.633z" fill="#F8FAFC" stroke="#2B2A29" stroke-width=".651" stroke-miterlimit="22.926"/><path d="M48.382 39.25l13.96 4.024M88.71 39.234l-6.558 2.227" stroke="#F8FAFC" stroke-width=".651" stroke-miterlimit="22.926"/><path d="M32.173 33.665L74.235 13l26.526 19.94" stroke="#F8FAFC" stroke-width=".517" stroke-miterlimit="22.926"/><path d="M72.973 65.207l4.18-.91" stroke="#2B2A29" stroke-width=".651" stroke-miterlimit="22.926"/><path d="M102 96.998l-70-.002" stroke="#F8FAFC" stroke-width=".517" stroke-miterlimit="22.926"/><path d="M50.623 69.773l-3.349.742M50.623 69.772V66.63M72.973 65.21v-3.67M72.97 86.258h4.237M72.97 74.49l3.978-.709M72.97 74.488v3.123M72.97 86.259V82.94M88.693 39.137v-2.032M82.102 34.908v-2.053M82.161 86.21H79.73M91.363 86.21h-2.652v2.122M82.161 86.21v1.994M62.342 33.003l2.997-1.347M48.383 39.25l-2.777 1.222M62.342 33.001v-2.716M48.382 39.255v-2.888M62.342 56.228V53.55l2.845-.757M48.382 59.012v-2.035l-2.855.76M79.947 33.54l10.642 6.848" stroke="#2B2A29" stroke-width=".651" stroke-miterlimit="22.926"/></svg>