<?xml version="1.0" encoding="utf-8"?><svg width="40" height="39" fill="none" xmlns="http://www.w3.org/2000/svg" viewBox="0 0 40 39"><path d="M.5 18.72C.5 9.895.5 5.483 3.241 2.741 5.983 0 10.395 0 19.22 0h1.56c8.825 0 13.237 0 15.978 2.741C39.5 5.483 39.5 9.895 39.5 18.72v1.56c0 8.825 0 13.237-2.742 15.978C34.017 39 29.605 39 20.78 39h-1.56c-8.825 0-13.237 0-15.979-2.742C.5 33.517.5 29.105.5 20.28v-1.56z" fill="#333"/><path d="M20 32.78c7.336 0 13.282-5.947 13.282-13.283 0-7.335-5.946-13.282-13.282-13.282S6.717 12.162 6.717 19.497c0 7.336 5.947 13.283 13.283 13.283z" fill="#fff"/><path d="M20 31.485c6.62 0 11.987-5.366 11.987-11.986 0-6.62-5.367-11.987-11.987-11.987S8.013 12.878 8.013 19.498c0 6.62 5.367 11.987 11.987 11.987z" fill="#333"/><path d="M12.245 19.384l8.945-3.686c.883-.383 3.877-1.612 3.877-1.612s1.382-.537 1.267.768c-.038.537-.345 2.419-.652 4.453l-.96 6.027s-.077.883-.73 1.037c-.652.153-1.727-.538-1.92-.691-.153-.116-2.878-1.843-3.876-2.688-.27-.23-.576-.69.038-1.228a146.907 146.907 0 004.03-3.839c.462-.46.922-1.535-.997-.23l-5.413 3.647s-.614.384-1.766.038a79.859 79.859 0 01-2.495-.806s-.922-.576.652-1.19z" fill="#fff"/></svg>