<?xml version="1.0" encoding="utf-8"?><svg width="39" height="39" fill="none" xmlns="http://www.w3.org/2000/svg" viewBox="0 0 39 39"><path d="M0 18.72C0 9.895 0 5.483 2.741 2.741 5.483 0 9.895 0 18.72 0h1.56c8.825 0 13.237 0 15.978 2.741C39 5.483 39 9.895 39 18.72v1.56c0 8.825 0 13.237-2.742 15.978C33.517 39 29.105 39 20.28 39h-1.56c-8.825 0-13.237 0-15.979-2.742C0 33.517 0 29.105 0 20.28v-1.56z" fill="#333"/><path d="M20.752 28.097c-8.89 0-13.96-6.094-14.17-16.234h4.452c.146 7.443 3.429 10.595 6.029 11.245V11.863h4.192v6.419c2.568-.276 5.265-3.201 6.175-6.419h4.193c-.7 3.965-3.624 6.89-5.704 8.093 2.08.975 5.411 3.526 6.679 8.141h-4.615c-.992-3.088-3.461-5.476-6.728-5.801v5.801h-.503z" fill="#fff"/></svg>