<?xml version="1.0" encoding="utf-8"?><svg width="39" height="39" fill="none" xmlns="http://www.w3.org/2000/svg" viewBox="0 0 39 39"><path d="M0 18.72C0 9.895 0 5.483 2.741 2.741 5.483 0 9.895 0 18.72 0h1.56c8.825 0 13.237 0 15.978 2.741C39 5.483 39 9.895 39 18.72v1.56c0 8.825 0 13.237-2.742 15.978C33.517 39 29.105 39 20.28 39h-1.56c-8.825 0-13.237 0-15.979-2.742C0 33.517 0 29.105 0 20.28v-1.56z" fill="#07F"/><path d="M0 18.72C0 9.895 0 5.483 2.741 2.741 5.483 0 9.895 0 18.72 0h1.56c8.825 0 13.237 0 15.978 2.741C39 5.483 39 9.895 39 18.72v1.56c0 8.825 0 13.237-2.742 15.978C33.517 39 29.105 39 20.28 39h-1.56c-8.825 0-13.237 0-15.979-2.742C0 33.517 0 29.105 0 20.28v-1.56z" fill="#333"/><path d="M8.702 19.154c0 2.007.524 3.968 1.521 5.696l-1.617 5.904 6.042-1.584a11.395 11.395 0 005.447 1.386h.005c6.281 0 11.394-5.111 11.397-11.394a11.322 11.322 0 00-3.335-8.06 11.325 11.325 0 00-8.063-3.342c-6.282 0-11.395 5.111-11.397 11.394z" fill="#333"/><path d="M8.295 19.148c-.001 2.08.542 4.11 1.576 5.9l-1.675 6.116 6.258-1.641a11.797 11.797 0 005.642 1.437h.005c6.507 0 11.804-5.296 11.807-11.803a11.73 11.73 0 00-3.455-8.35A11.733 11.733 0 0020.1 7.346c-6.508 0-11.804 5.294-11.806 11.802zm3.727 5.592l-.234-.371a9.783 9.783 0 01-1.5-5.22c.002-5.41 4.404-9.81 9.817-9.81a9.75 9.75 0 016.938 2.877 9.75 9.75 0 012.871 6.94c-.002 5.41-4.404 9.81-9.813 9.81h-.003a9.8 9.8 0 01-4.995-1.367l-.359-.213-3.714.974.992-3.62z" fill="url(#rpaint0_linear_311_10533)"/><path fill-rule="evenodd" clip-rule="evenodd" d="M17.15 14.216c-.22-.491-.453-.501-.663-.51-.172-.007-.37-.007-.566-.007-.196 0-.516.074-.786.37-.27.294-1.033 1.008-1.033 2.46 0 1.451 1.057 2.854 1.205 3.05.147.197 2.04 3.27 5.039 4.453 2.492.983 2.999.788 3.54.738.54-.049 1.745-.713 1.991-1.402s.246-1.28.172-1.403c-.074-.122-.27-.196-.565-.344-.295-.147-1.746-.861-2.016-.96-.27-.098-.467-.147-.664.148-.197.296-.762.96-.934 1.156-.172.198-.344.222-.639.075-.295-.148-1.245-.46-2.372-1.464-.877-.782-1.47-1.748-1.641-2.043-.172-.295-.019-.455.13-.602.132-.132.294-.345.442-.517.147-.172.196-.295.294-.492.099-.197.05-.369-.024-.517-.074-.147-.647-1.606-.91-2.19z" fill="#fff"/><defs><linearGradient id="rpaint0_linear_311_10533" x1="20.052" y1="31.164" x2="20.052" y2="7.346" gradientUnits="userSpaceOnUse"><stop stop-color="#F9F9F9"/><stop offset="1" stop-color="#fff"/></linearGradient></defs></svg>