<?xml version="1.0" encoding="utf-8"?><svg width="40" height="39" fill="none" xmlns="http://www.w3.org/2000/svg" viewBox="0 0 40 39"><path d="M.5 18.72C.5 9.895.5 5.483 3.241 2.741 5.983 0 10.395 0 19.22 0h1.56c8.825 0 13.237 0 15.978 2.741C39.5 5.483 39.5 9.895 39.5 18.72v1.56c0 8.825 0 13.237-2.742 15.978C34.017 39 29.605 39 20.78 39h-1.56c-8.825 0-13.237 0-15.979-2.742C.5 33.517.5 29.105.5 20.28v-1.56z" fill="#333"/><path d="M20.686 25.144a.813.813 0 010 1.149l-1.01 1.015a5.691 5.691 0 01-8.045-8.05l2.45-2.45a5.687 5.687 0 017.8-.232.816.816 0 01-1.08 1.22 4.062 4.062 0 00-5.57.165l-2.45 2.446a4.063 4.063 0 105.746 5.747l1.01-1.01a.813.813 0 011.15 0zm7.118-14.015a5.696 5.696 0 00-8.046 0l-1.01 1.01a.813.813 0 101.15 1.149l1.01-1.01a4.063 4.063 0 015.746 5.747l-2.45 2.451a4.062 4.062 0 01-5.57.163.814.814 0 10-1.081 1.219 5.688 5.688 0 007.8-.23l2.45-2.45a5.696 5.696 0 000-8.047v-.002z" fill="#fff"/></svg>