<?xml version="1.0" encoding="utf-8"?><svg width="40" height="39" fill="none" xmlns="http://www.w3.org/2000/svg" viewBox="0 0 40 39"><path d="M.5 18.72C.5 9.895.5 5.483 3.241 2.741 5.983 0 10.395 0 19.22 0h1.56c8.825 0 13.237 0 15.978 2.741C39.5 5.483 39.5 9.895 39.5 18.72v1.56c0 8.825 0 13.237-2.742 15.978C34.017 39 29.605 39 20.78 39h-1.56c-8.825 0-13.237 0-15.979-2.742C.5 33.517.5 29.105.5 20.28v-1.56z" fill="#333"/><g clip-path="url(#oclip0_314_6652)"><path d="M25.197 13.698a1.312 1.312 0 011.873 1.837l-6.983 8.733a1.313 1.313 0 01-1.89.035l-4.63-4.63a1.312 1.312 0 111.855-1.856l3.664 3.663 6.078-7.744.033-.038z" fill="#fff"/></g><defs><clipPath id="oclip0_314_6652"><path fill="#fff" transform="translate(6.717 6.219)" d="M0 0h26v26H0z"/></clipPath></defs></svg>