<svg width="46" height="116" viewBox="0 0 46 116" fill="none" xmlns="http://www.w3.org/2000/svg">
<path d="M26 3.5C26 1.84315 24.6569 0.5 23 0.5C21.3431 0.5 20 1.84315 20 3.5L26 3.5ZM20.8787 114.621C22.0503 115.793 23.9498 115.793 25.1213 114.621L44.2132 95.5294C45.3848 94.3579 45.3848 92.4584 44.2132 91.2868C43.0416 90.1152 41.1421 90.1152 39.9706 91.2868L23 108.257L6.02944 91.2868C4.85787 90.1152 2.95837 90.1152 1.7868 91.2868C0.615227 92.4584 0.615227 94.3579 1.7868 95.5294L20.8787 114.621ZM20 3.5L20 112.5L26 112.5L26 3.5L20 3.5Z" fill="currentColor"/>
</svg>
