<svg width="70" height="86" viewBox="0 0 70 86" fill="none" xmlns="http://www.w3.org/2000/svg">
<path fill-rule="evenodd" clip-rule="evenodd" d="M43.2681 82.9043L64.0843 82.8913L63.9493 19.9225L43.2681 4.66406V82.9043ZM50.1618 74.2141L50.1513 22.9317L56.7108 27.2339V74.2141H50.1618Z" fill="#5E5E5E" stroke="#2B2A29" stroke-width="0.651376" stroke-miterlimit="22.9256"/>
<path fill-rule="evenodd" clip-rule="evenodd" d="M30.3417 21.002L16.3818 27.2521V44.9748L30.3417 41.5501V21.002Z" stroke="#2B2A29" stroke-width="0.651376" stroke-miterlimit="22.9256"/>
<path fill-rule="evenodd" clip-rule="evenodd" d="M16.545 82.9863V56.1072L40.9798 50.8846L40.9609 4.76758L4.82568 21.8556V82.9863H16.545ZM30.3325 21.0636L16.3727 27.3137V45.0364L30.3325 41.6118V21.0636Z" fill="#333333" stroke="#2B2A29" stroke-width="0.651376" stroke-miterlimit="22.9256"/>
<path fill-rule="evenodd" clip-rule="evenodd" d="M27.5848 64.6241L40.9699 62.4874L40.9736 53.207L18.623 57.7735V82.9259L40.969 82.9252L40.9699 74.2573H27.5848V64.6241Z" fill="#333333" stroke="#2B2A29" stroke-width="0.651376" stroke-miterlimit="22.9256"/>
<path d="M16.3818 27.252L30.3417 31.276" stroke="#2B2A29" stroke-width="0.651376" stroke-miterlimit="22.9256"/>
<path d="M56.711 27.2324L50.1528 29.4587" stroke="#2B2A29" stroke-width="0.651376" stroke-miterlimit="22.9256"/>
<path d="M0.172607 21.6649L42.235 1L68.7611 20.9392" stroke="#2B2A29" stroke-width="0.51703" stroke-miterlimit="22.9256"/>
<path d="M40.9731 53.207L45.1537 52.2969" stroke="#2B2A29" stroke-width="0.651376" stroke-miterlimit="22.9256"/>
<path d="M70 85.0002L0 84.998" stroke="#2B2A29" stroke-width="0.51703" stroke-miterlimit="22.9256"/>
<path d="M18.6233 57.7734L15.2744 58.5147" stroke="#2B2A29" stroke-width="0.651376" stroke-miterlimit="22.9256"/>
<path d="M18.623 57.7745V54.6309" stroke="#2B2A29" stroke-width="0.651376" stroke-miterlimit="22.9256"/>
<path d="M40.9731 53.2074V49.5371" stroke="#2B2A29" stroke-width="0.651376" stroke-miterlimit="22.9256"/>
<path d="M40.9697 74.2578H45.2067" stroke="#2B2A29" stroke-width="0.651376" stroke-miterlimit="22.9256"/>
<path d="M40.9697 62.4877L44.9481 61.7793" stroke="#2B2A29" stroke-width="0.651376" stroke-miterlimit="22.9256"/>
<path d="M40.9697 62.4883V65.6108" stroke="#2B2A29" stroke-width="0.651376" stroke-miterlimit="22.9256"/>
<path d="M40.9697 74.257V70.9395" stroke="#2B2A29" stroke-width="0.651376" stroke-miterlimit="22.9256"/>
<path d="M56.6938 27.1367V25.1055" stroke="#2B2A29" stroke-width="0.651376" stroke-miterlimit="22.9256"/>
<path d="M50.1016 22.9082V20.8555" stroke="#2B2A29" stroke-width="0.651376" stroke-miterlimit="22.9256"/>
<path d="M50.1614 74.2129H47.7295" stroke="#2B2A29" stroke-width="0.651376" stroke-miterlimit="22.9256"/>
<path d="M59.3631 74.2129H56.7109V76.3342" stroke="#2B2A29" stroke-width="0.651376" stroke-miterlimit="22.9256"/>
<path d="M50.1611 74.2129V76.2058" stroke="#2B2A29" stroke-width="0.651376" stroke-miterlimit="22.9256"/>
<path d="M30.3418 21.0026L33.3392 19.6562" stroke="#2B2A29" stroke-width="0.651376" stroke-miterlimit="22.9256"/>
<path d="M16.3825 27.252L13.6064 28.474" stroke="#2B2A29" stroke-width="0.651376" stroke-miterlimit="22.9256"/>
<path d="M30.3418 21.0014V18.2852" stroke="#2B2A29" stroke-width="0.651376" stroke-miterlimit="22.9256"/>
<path d="M16.3818 27.2528V24.3652" stroke="#2B2A29" stroke-width="0.651376" stroke-miterlimit="22.9256"/>
<path d="M30.3418 44.2281V41.5505L33.1871 40.793" stroke="#2B2A29" stroke-width="0.651376" stroke-miterlimit="22.9256"/>
<path d="M16.3824 47.0101V44.9746L13.5278 45.7345" stroke="#2B2A29" stroke-width="0.651376" stroke-miterlimit="22.9256"/>
<path d="M47.9473 21.5391L58.5895 28.3884" stroke="#2B2A29" stroke-width="0.651376" stroke-miterlimit="22.9256"/>
</svg>
