<svg width="20" height="20" viewBox="0 0 20 20" fill="none" xmlns="http://www.w3.org/2000/svg">
<path d="M15 18.3307C14.3056 18.3307 13.7153 18.0877 13.2292 17.6016C12.7431 17.1155 12.5 16.5252 12.5 15.8307C12.5 15.7335 12.5069 15.6327 12.5208 15.5282C12.5347 15.4238 12.5556 15.3302 12.5833 15.2474L6.70833 11.8307C6.47222 12.0391 6.20833 12.2024 5.91667 12.3207C5.625 12.4391 5.31944 12.498 5 12.4974C4.30556 12.4974 3.71528 12.2543 3.22917 11.7682C2.74306 11.2821 2.5 10.6918 2.5 9.9974C2.5 9.30295 2.74306 8.71267 3.22917 8.22656C3.71528 7.74045 4.30556 7.4974 5 7.4974C5.31944 7.4974 5.625 7.55656 5.91667 7.6749C6.20833 7.79323 6.47222 7.95628 6.70833 8.16406L12.5833 4.7474C12.5556 4.66406 12.5347 4.57045 12.5208 4.46656C12.5069 4.36267 12.5 4.26184 12.5 4.16406C12.5 3.46962 12.7431 2.87934 13.2292 2.39323C13.7153 1.90712 14.3056 1.66406 15 1.66406C15.6944 1.66406 16.2847 1.90712 16.7708 2.39323C17.2569 2.87934 17.5 3.46962 17.5 4.16406C17.5 4.85851 17.2569 5.44878 16.7708 5.9349C16.2847 6.42101 15.6944 6.66406 15 6.66406C14.6806 6.66406 14.375 6.60517 14.0833 6.4874C13.7917 6.36962 13.5278 6.20628 13.2917 5.9974L7.41667 9.41406C7.44444 9.4974 7.46528 9.59128 7.47917 9.69573C7.49306 9.80017 7.5 9.90073 7.5 9.9974C7.5 10.0946 7.49306 10.1955 7.47917 10.2999C7.46528 10.4043 7.44444 10.498 7.41667 10.5807L13.2917 13.9974C13.5278 13.7891 13.7917 13.626 14.0833 13.5082C14.375 13.3905 14.6806 13.3313 15 13.3307C15.6944 13.3307 16.2847 13.5738 16.7708 14.0599C17.2569 14.546 17.5 15.1363 17.5 15.8307C17.5 16.5252 17.2569 17.1155 16.7708 17.6016C16.2847 18.0877 15.6944 18.3307 15 18.3307Z" fill="currentColor"/>
</svg>
