<svg width="60" height="60" viewBox="0 0 60 60" fill="none" xmlns="http://www.w3.org/2000/svg">
<path d="M30.003 5C43.8105 5 55.003 16.1925 55.003 30C55.003 43.8075 43.8105 55 30.003 55C25.5849 55.0071 21.2446 53.8379 17.428 51.6125L5.01296 55L8.39296 42.58C6.1657 38.7622 4.99558 34.42 5.00296 30C5.00296 16.1925 16.1955 5 30.003 5ZM21.483 18.25L20.983 18.27C20.6593 18.2897 20.3429 18.3748 20.053 18.52C19.7818 18.6736 19.5342 18.8656 19.318 19.09C19.018 19.3725 18.848 19.6175 18.6655 19.855C17.7408 21.0573 17.2429 22.5333 17.2505 24.05C17.2555 25.275 17.5755 26.4675 18.0755 27.5825C19.098 29.8375 20.7805 32.225 23.0005 34.4375C23.5355 34.97 24.0605 35.505 24.6255 36.0025C27.3839 38.4312 30.6711 40.1826 34.2255 41.1175L35.6455 41.335C36.108 41.36 36.5705 41.325 37.0355 41.3025C37.7636 41.2649 38.4745 41.0678 39.118 40.725C39.4453 40.5564 39.7649 40.3728 40.0755 40.175C40.0755 40.175 40.183 40.105 40.388 39.95C40.7255 39.7 40.933 39.5225 41.213 39.23C41.4205 39.015 41.6005 38.7625 41.738 38.475C41.933 38.0675 42.128 37.29 42.208 36.6425C42.268 36.1475 42.2505 35.8775 42.243 35.71C42.233 35.4425 42.0105 35.165 41.768 35.0475L40.313 34.395C40.313 34.395 38.138 33.4475 36.808 32.8425C36.6688 32.7817 36.5197 32.747 36.368 32.74C36.1969 32.7224 36.0241 32.7417 35.8611 32.7964C35.6981 32.8512 35.5487 32.9402 35.423 33.0575C35.4105 33.0525 35.243 33.195 33.4355 35.385C33.3317 35.5244 33.1888 35.6298 33.025 35.6876C32.8611 35.7455 32.6837 35.7533 32.5155 35.71C32.3526 35.6663 32.193 35.6112 32.038 35.545C31.728 35.415 31.6205 35.365 31.408 35.275C29.9731 34.6489 28.6447 33.8029 27.4705 32.7675C27.1555 32.4925 26.863 32.1925 26.563 31.9025C25.5794 30.9606 24.7223 29.895 24.013 28.7325L23.8655 28.495C23.7595 28.3354 23.6739 28.1633 23.6105 27.9825C23.5155 27.615 23.763 27.32 23.763 27.32C23.763 27.32 24.3705 26.655 24.653 26.295C24.928 25.945 25.1605 25.605 25.3105 25.3625C25.6055 24.8875 25.698 24.4 25.543 24.0225C24.843 22.3125 24.118 20.61 23.373 18.92C23.2255 18.585 22.788 18.345 22.3905 18.2975C22.2555 18.2825 22.1205 18.2675 21.9855 18.2575C21.6497 18.2408 21.3133 18.2442 20.978 18.2675L21.483 18.25Z" fill="#9C9C9C"/>
</svg>
