<svg width="40" height="40" viewBox="0 0 40 40" fill="none" xmlns="http://www.w3.org/2000/svg">
<path fill-rule="evenodd" clip-rule="evenodd" d="M17.4999 3.33203C15.2409 3.33222 13.0147 3.87264 11.007 4.90819C8.99935 5.94374 7.26842 7.44439 5.95866 9.28495C4.6489 11.1255 3.79828 13.2526 3.47778 15.4888C3.15728 17.7249 3.37618 20.0053 4.11623 22.1397C4.85628 24.274 6.09601 26.2005 7.732 27.7582C9.36798 29.316 11.3528 30.46 13.5208 31.0947C15.6888 31.7294 17.9772 31.8364 20.195 31.4069C22.4128 30.9773 24.4957 30.0236 26.2699 28.6254L32.3566 34.712C32.6709 35.0156 33.0919 35.1836 33.5289 35.1798C33.9659 35.176 34.384 35.0007 34.693 34.6917C35.002 34.3827 35.1773 33.9647 35.1811 33.5277C35.1849 33.0907 35.0169 32.6697 34.7133 32.3554L28.6266 26.2687C30.2733 24.1797 31.2985 21.6694 31.5851 19.0249C31.8717 16.3804 31.4079 13.7087 30.247 11.3155C29.086 8.92231 27.2747 6.90429 25.0204 5.49242C22.7661 4.08054 20.1599 3.33185 17.4999 3.33203ZM6.6666 17.4987C6.6666 14.6255 7.80797 11.87 9.83961 9.83837C11.8713 7.80673 14.6268 6.66536 17.4999 6.66536C20.3731 6.66536 23.1286 7.80673 25.1603 9.83837C27.1919 11.87 28.3333 14.6255 28.3333 17.4987C28.3333 20.3719 27.1919 23.1274 25.1603 25.159C23.1286 27.1907 20.3731 28.332 17.4999 28.332C14.6268 28.332 11.8713 27.1907 9.83961 25.159C7.80797 23.1274 6.6666 20.3719 6.6666 17.4987Z" fill="currentColor"/>
</svg>
