<svg width="29" height="29" viewBox="0 0 29 29" fill="none" xmlns="http://www.w3.org/2000/svg">
<path d="M23.5903 14.0201C23.6535 14.0832 23.7036 14.1582 23.7378 14.2407C23.772 14.3232 23.7896 14.4116 23.7896 14.501C23.7896 14.5903 23.772 14.6787 23.7378 14.7612C23.7036 14.8438 23.6535 14.9187 23.5903 14.9818L14.2944 24.2709C13.1469 25.418 11.5907 26.0622 9.96815 26.0619C8.34561 26.0616 6.78965 25.4167 5.64257 24.2692C4.49549 23.1217 3.85124 21.5655 3.85156 19.9429C3.85188 18.3204 4.49674 16.7644 5.64427 15.6173L16.8897 4.20766C17.2893 3.80771 17.7637 3.49038 18.2859 3.27378C18.8082 3.05719 19.3679 2.94558 19.9333 2.94531C20.4986 2.94505 21.0585 3.05614 21.5809 3.27225C22.1033 3.48836 22.5781 3.80525 22.978 4.20483C23.378 4.6044 23.6953 5.07884 23.9119 5.60106C24.1285 6.12327 24.2401 6.68304 24.2403 7.24839C24.2406 7.81374 24.1295 8.37361 23.9134 8.89602C23.6973 9.41844 23.3804 9.89318 22.9808 10.2931L11.7343 21.6983C11.2672 22.1662 10.6334 22.4295 9.97232 22.4301C9.31119 22.4307 8.67689 22.1687 8.20896 21.7017C7.74102 21.2346 7.47778 20.6009 7.47714 19.9397C7.47651 19.2786 7.73853 18.6443 8.20556 18.1764L17.6396 8.58484C17.7661 8.45626 17.9385 8.38318 18.1189 8.38169C18.2992 8.38021 18.4728 8.45043 18.6014 8.57691C18.73 8.7034 18.803 8.87579 18.8045 9.05615C18.806 9.23652 18.7358 9.41008 18.6093 9.53867L9.17525 19.1347C9.06977 19.2397 8.98601 19.3644 8.92873 19.5017C8.87144 19.639 8.84177 19.7863 8.8414 19.9351C8.84104 20.0839 8.86998 20.2313 8.92658 20.3689C8.98318 20.5065 9.06633 20.6316 9.17128 20.7371C9.27623 20.8426 9.40093 20.9263 9.53826 20.9836C9.67559 21.0409 9.82285 21.0706 9.97164 21.0709C10.1204 21.0713 10.2678 21.0424 10.4055 20.9858C10.5431 20.9292 10.6682 20.846 10.7736 20.7411L22.0157 9.33477C22.5685 8.78286 22.8794 8.03395 22.8801 7.25279C22.8807 6.47164 22.571 5.72223 22.0191 5.16942C21.4672 4.6166 20.7183 4.30568 19.9371 4.30504C19.156 4.30441 18.4065 4.61411 17.8537 5.16602L6.60716 16.5712C5.71425 17.463 5.2122 18.6731 5.21146 19.9351C5.21072 21.1971 5.71134 22.4077 6.6032 23.3006C7.49505 24.1936 8.70509 24.6956 9.96711 24.6963C11.2291 24.6971 12.4398 24.1965 13.3327 23.3046L22.6285 14.0155C22.692 13.9526 22.7672 13.9029 22.8498 13.8691C22.9325 13.8352 23.021 13.818 23.1103 13.8185C23.1997 13.8189 23.288 13.8369 23.3704 13.8715C23.4527 13.9061 23.5275 13.9566 23.5903 14.0201Z" fill="currentColor"/>
</svg>
