<svg width="131" height="159" viewBox="0 0 131 159" fill="none" xmlns="http://www.w3.org/2000/svg">
<g opacity="0.59">
<path fill-rule="evenodd" clip-rule="evenodd" d="M80.9731 154.276L119.929 154.252L119.677 36.4106L80.9731 7.85547V154.276ZM93.8742 138.013L93.8547 42.042L106.13 50.0933V138.013H93.8742Z" fill="#5E5E5E" stroke="#2B2A29" stroke-width="0.651376" stroke-miterlimit="22.9256"/>
<path fill-rule="evenodd" clip-rule="evenodd" d="M56.7823 38.4336L30.6575 50.1302V83.297L56.7823 76.888V38.4336Z" stroke="#2B2A29" stroke-width="0.651376" stroke-miterlimit="22.9256"/>
<path fill-rule="evenodd" clip-rule="evenodd" d="M30.9628 154.431V104.129L76.6908 94.3556L76.6553 8.05078L9.03088 40.0299V154.431H30.9628ZM56.7651 38.5476L30.6403 50.2443V83.411L56.7651 77.0021V38.5476Z" fill="#333333" stroke="#2B2A29" stroke-width="0.651376" stroke-miterlimit="22.9256"/>
<path fill-rule="evenodd" clip-rule="evenodd" d="M51.623 120.069L76.6722 116.071L76.6791 98.7031L34.8517 107.249V154.32L76.6704 154.319L76.6722 138.097H51.623V120.069Z" fill="#333333" stroke="#2B2A29" stroke-width="0.651376" stroke-miterlimit="22.9256"/>
<path d="M30.6575 50.1289L56.7823 57.6595" stroke="#2B2A29" stroke-width="0.651376" stroke-miterlimit="22.9256"/>
<path d="M106.13 50.0938L93.8574 54.26" stroke="#2B2A29" stroke-width="0.651376" stroke-miterlimit="22.9256"/>
<path d="M0.32251 39.6729L79.0392 1L128.681 38.3148" stroke="#2B2A29" stroke-width="0.51703" stroke-miterlimit="22.9256"/>
<path d="M76.6783 98.7033L84.5019 97" stroke="#2B2A29" stroke-width="0.651376" stroke-miterlimit="22.9256"/>
<path d="M131 158.199L0 158.195" stroke="#2B2A29" stroke-width="0.51703" stroke-miterlimit="22.9256"/>
<path d="M34.8521 107.25L28.585 108.637" stroke="#2B2A29" stroke-width="0.651376" stroke-miterlimit="22.9256"/>
<path d="M34.8517 107.25V101.367" stroke="#2B2A29" stroke-width="0.651376" stroke-miterlimit="22.9256"/>
<path d="M76.6783 98.7008V91.832" stroke="#2B2A29" stroke-width="0.651376" stroke-miterlimit="22.9256"/>
<path d="M76.6719 138.094H84.6011" stroke="#2B2A29" stroke-width="0.651376" stroke-miterlimit="22.9256"/>
<path d="M76.6719 116.068L84.1172 114.742" stroke="#2B2A29" stroke-width="0.651376" stroke-miterlimit="22.9256"/>
<path d="M76.6719 116.07V121.914" stroke="#2B2A29" stroke-width="0.651376" stroke-miterlimit="22.9256"/>
<path d="M76.6719 138.099V131.891" stroke="#2B2A29" stroke-width="0.651376" stroke-miterlimit="22.9256"/>
<path d="M106.099 49.9107V46.1094" stroke="#2B2A29" stroke-width="0.651376" stroke-miterlimit="22.9256"/>
<path d="M93.7615 41.9978V38.1562" stroke="#2B2A29" stroke-width="0.651376" stroke-miterlimit="22.9256"/>
<path d="M93.8735 138.016H89.3224" stroke="#2B2A29" stroke-width="0.651376" stroke-miterlimit="22.9256"/>
<path d="M111.094 138.016H106.13V141.985" stroke="#2B2A29" stroke-width="0.651376" stroke-miterlimit="22.9256"/>
<path d="M93.8729 138.016V141.745" stroke="#2B2A29" stroke-width="0.651376" stroke-miterlimit="22.9256"/>
<path d="M56.7825 38.4336L62.392 35.9141" stroke="#2B2A29" stroke-width="0.651376" stroke-miterlimit="22.9256"/>
<path d="M30.6588 50.1289L25.4635 52.4159" stroke="#2B2A29" stroke-width="0.651376" stroke-miterlimit="22.9256"/>
<path d="M56.7825 38.4309V33.3477" stroke="#2B2A29" stroke-width="0.651376" stroke-miterlimit="22.9256"/>
<path d="M30.6575 50.1304V44.7266" stroke="#2B2A29" stroke-width="0.651376" stroke-miterlimit="22.9256"/>
<path d="M56.7825 81.8973V76.8864L62.1073 75.4688" stroke="#2B2A29" stroke-width="0.651376" stroke-miterlimit="22.9256"/>
<path d="M30.6586 87.1062V83.2969L25.3164 84.719" stroke="#2B2A29" stroke-width="0.651376" stroke-miterlimit="22.9256"/>
<path d="M89.7299 39.4375L109.646 52.2556" stroke="#2B2A29" stroke-width="0.651376" stroke-miterlimit="22.9256"/>
</g>
</svg>
