<svg width="133" height="174" viewBox="0 0 133 174" fill="none" xmlns="http://www.w3.org/2000/svg">
<path d="M133 66.5C133 103.227 94 141 66.5 173.5C38 143.5 0 103.227 0 66.5C0 29.7731 29.7731 0 66.5 0C103.227 0 133 29.7731 133 66.5Z" fill="#333333"/>
<path fill-rule="evenodd" clip-rule="evenodd" d="M75.2676 94.9043L96.0838 94.8913L95.9488 31.9225L75.2676 16.6641V94.9043ZM82.1613 86.2141L82.1509 34.9317L88.7104 39.2339V86.2141H82.1613Z" fill="#F8FAFC" stroke="#2B2A29" stroke-width="0.651376" stroke-miterlimit="22.9256"/>
<path fill-rule="evenodd" clip-rule="evenodd" d="M62.3417 33.0039L48.3818 39.254V56.9767L62.3417 53.5521V33.0039Z" stroke="#2B2A29" stroke-width="0.651376" stroke-miterlimit="22.9256"/>
<path fill-rule="evenodd" clip-rule="evenodd" d="M48.5455 94.9843V68.1053L72.9803 62.8827L72.9614 16.7656L36.8262 33.8537V94.9843H48.5455ZM62.333 33.0617L48.3732 39.3118V57.0345L62.333 53.6098V33.0617Z" fill="#F8FAFC" stroke="#2B2A29" stroke-width="0.651376" stroke-miterlimit="22.9256"/>
<path fill-rule="evenodd" clip-rule="evenodd" d="M59.5848 76.6241L72.9699 74.4874L72.9736 65.207L50.623 69.7735V94.9259L72.969 94.9252L72.9699 86.2573H59.5848V76.6241Z" fill="#F8FAFC" stroke="#2B2A29" stroke-width="0.651376" stroke-miterlimit="22.9256"/>
<path d="M48.3818 39.25L62.3417 43.274" stroke="#F8FAFC" stroke-width="0.651376" stroke-miterlimit="22.9256"/>
<path d="M88.7105 39.2344L82.1523 41.4606" stroke="#F8FAFC" stroke-width="0.651376" stroke-miterlimit="22.9256"/>
<path d="M32.1729 33.6649L74.2352 13L100.761 32.9392" stroke="#F8FAFC" stroke-width="0.51703" stroke-miterlimit="22.9256"/>
<path d="M72.9727 65.207L77.1532 64.2969" stroke="#2B2A29" stroke-width="0.651376" stroke-miterlimit="22.9256"/>
<path d="M102 96.9982L32 96.9961" stroke="#F8FAFC" stroke-width="0.51703" stroke-miterlimit="22.9256"/>
<path d="M50.6233 69.7734L47.2744 70.5147" stroke="#2B2A29" stroke-width="0.651376" stroke-miterlimit="22.9256"/>
<path d="M50.623 69.7725V66.6289" stroke="#2B2A29" stroke-width="0.651376" stroke-miterlimit="22.9256"/>
<path d="M72.9727 65.2094V61.5391" stroke="#2B2A29" stroke-width="0.651376" stroke-miterlimit="22.9256"/>
<path d="M72.9697 86.2578H77.2067" stroke="#2B2A29" stroke-width="0.651376" stroke-miterlimit="22.9256"/>
<path d="M72.9697 74.4897L76.9481 73.7812" stroke="#2B2A29" stroke-width="0.651376" stroke-miterlimit="22.9256"/>
<path d="M72.9697 74.4883V77.6108" stroke="#2B2A29" stroke-width="0.651376" stroke-miterlimit="22.9256"/>
<path d="M72.9697 86.2589V82.9414" stroke="#2B2A29" stroke-width="0.651376" stroke-miterlimit="22.9256"/>
<path d="M88.6934 39.1367V37.1055" stroke="#2B2A29" stroke-width="0.651376" stroke-miterlimit="22.9256"/>
<path d="M82.1016 34.9082V32.8555" stroke="#2B2A29" stroke-width="0.651376" stroke-miterlimit="22.9256"/>
<path d="M82.1614 86.2109H79.7295" stroke="#2B2A29" stroke-width="0.651376" stroke-miterlimit="22.9256"/>
<path d="M91.3631 86.2109H88.7109V88.3322" stroke="#2B2A29" stroke-width="0.651376" stroke-miterlimit="22.9256"/>
<path d="M82.1611 86.2109V88.2038" stroke="#2B2A29" stroke-width="0.651376" stroke-miterlimit="22.9256"/>
<path d="M62.3418 33.0026L65.3392 31.6562" stroke="#2B2A29" stroke-width="0.651376" stroke-miterlimit="22.9256"/>
<path d="M48.3825 39.25L45.6064 40.4721" stroke="#2B2A29" stroke-width="0.651376" stroke-miterlimit="22.9256"/>
<path d="M62.3418 33.0014V30.2852" stroke="#2B2A29" stroke-width="0.651376" stroke-miterlimit="22.9256"/>
<path d="M48.3818 39.2547V36.3672" stroke="#2B2A29" stroke-width="0.651376" stroke-miterlimit="22.9256"/>
<path d="M62.3418 56.2281V53.5505L65.1871 52.793" stroke="#2B2A29" stroke-width="0.651376" stroke-miterlimit="22.9256"/>
<path d="M48.3819 59.0121V56.9766L45.5273 57.7365" stroke="#2B2A29" stroke-width="0.651376" stroke-miterlimit="22.9256"/>
<path d="M79.9473 33.5391L90.5895 40.3884" stroke="#2B2A29" stroke-width="0.651376" stroke-miterlimit="22.9256"/>
</svg>
