<svg width="40" height="39" viewBox="0 0 40 39" fill="none" xmlns="http://www.w3.org/2000/svg">
<path d="M0.5 18.72C0.5 9.89531 0.5 5.48297 3.24148 2.74148C5.98297 0 10.3953 0 19.22 0H20.78C29.6047 0 34.017 0 36.7585 2.74148C39.5 5.48297 39.5 9.89531 39.5 18.72V20.28C39.5 29.1047 39.5 33.517 36.7585 36.2585C34.017 39 29.6047 39 20.78 39H19.22C10.3953 39 5.98297 39 3.24148 36.2585C0.5 33.517 0.5 29.1047 0.5 20.28V18.72Z" fill="#333333"/>
<path d="M19.9999 32.7801C27.3357 32.7801 33.2825 26.8332 33.2825 19.4975C33.2825 12.1617 27.3357 6.21484 19.9999 6.21484C12.6641 6.21484 6.71729 12.1617 6.71729 19.4975C6.71729 26.8332 12.6641 32.7801 19.9999 32.7801Z" fill="white"/>
<path d="M19.9999 31.4852C26.62 31.4852 31.9867 26.1186 31.9867 19.4985C31.9867 12.8784 26.62 7.51172 19.9999 7.51172C13.3798 7.51172 8.01318 12.8784 8.01318 19.4985C8.01318 26.1186 13.3798 31.4852 19.9999 31.4852Z" fill="#333333"/>
<path d="M12.2453 19.3839L21.19 15.6985C22.0729 15.3146 25.0673 14.0862 25.0673 14.0862C25.0673 14.0862 26.4493 13.5487 26.3341 14.854C26.2957 15.3914 25.9886 17.2725 25.6815 19.3071L24.7218 25.3342C24.7218 25.3342 24.645 26.2171 23.9924 26.3707C23.3397 26.5242 22.2649 25.8332 22.0729 25.6797C21.9194 25.5645 19.1937 23.837 18.1956 22.9924C17.9269 22.7621 17.6198 22.3014 18.234 21.764C19.616 20.4971 21.2667 18.9232 22.2649 17.9251C22.7255 17.4644 23.1862 16.3895 21.2667 17.6947L15.8539 21.3417C15.8539 21.3417 15.2397 21.7256 14.088 21.3801C12.9363 21.0346 11.5927 20.5739 11.5927 20.5739C11.5927 20.5739 10.6714 19.9981 12.2453 19.3839Z" fill="white"/>
</svg>
