<svg width="39" height="39" viewBox="0 0 39 39" fill="none" xmlns="http://www.w3.org/2000/svg">
<path d="M0 18.72C0 9.89531 0 5.48297 2.74148 2.74148C5.48297 0 9.89531 0 18.72 0H20.28C29.1047 0 33.517 0 36.2585 2.74148C39 5.48297 39 9.89531 39 18.72V20.28C39 29.1047 39 33.517 36.2585 36.2585C33.517 39 29.1047 39 20.28 39H18.72C9.89531 39 5.48297 39 2.74148 36.2585C0 33.517 0 29.1047 0 20.28V18.72Z" fill="#0077FF"/>
<path d="M0 18.72C0 9.89531 0 5.48297 2.74148 2.74148C5.48297 0 9.89531 0 18.72 0H20.28C29.1047 0 33.517 0 36.2585 2.74148C39 5.48297 39 9.89531 39 18.72V20.28C39 29.1047 39 33.517 36.2585 36.2585C33.517 39 29.1047 39 20.28 39H18.72C9.89531 39 5.48297 39 2.74148 36.2585C0 33.517 0 29.1047 0 20.28V18.72Z" fill="#333333"/>
<path d="M8.70164 19.1535C8.70105 21.1612 9.22563 23.1217 10.2232 24.8496L8.6062 30.7539L14.6483 29.1696C16.3129 30.0769 18.1872 30.5557 20.0946 30.5564H20.0997C26.3811 30.5564 31.4943 25.4448 31.4969 19.1624C31.4982 16.118 30.3136 13.2554 28.1616 11.1018C26.0099 8.94814 23.1482 7.76149 20.0993 7.76013C13.8172 7.76013 8.70419 12.8712 8.70164 19.1535Z" fill="#333333"/>
<path d="M8.29469 19.1476C8.29393 21.2278 8.83745 23.2584 9.87053 25.0483L8.19556 31.1641L14.4544 29.523C16.1788 30.4634 18.1203 30.959 20.0961 30.9597H20.1012C26.608 30.9597 31.9048 25.6644 31.9076 19.1572C31.9087 16.0033 30.6817 13.0379 28.4528 10.8071C26.2236 8.57625 23.2593 7.34715 20.1012 7.34571C13.5934 7.34571 8.29728 12.6401 8.29465 19.1476H8.29469ZM12.0219 24.7401L11.7882 24.369C10.8059 22.8071 10.2873 21.002 10.2881 19.1484C10.2902 13.7396 14.6921 9.33923 20.105 9.33923C22.7262 9.34029 25.1897 10.362 27.0427 12.2162C28.8954 14.0702 29.9149 16.535 29.9142 19.1564C29.9119 24.5654 25.5098 28.9664 20.1013 28.9664H20.0975C18.3363 28.9655 16.6092 28.4926 15.1028 27.5987L14.7443 27.3863L11.0303 28.36L12.0219 24.7401Z" fill="url(#paint0_linear_311_10533)"/>
<path fill-rule="evenodd" clip-rule="evenodd" d="M17.1504 14.2158C16.9294 13.7246 16.6968 13.7147 16.4866 13.7061C16.3146 13.6988 16.1178 13.6992 15.9212 13.6992C15.7246 13.6992 15.4049 13.7731 15.1347 14.0683C14.8642 14.3635 14.1021 15.0771 14.1021 16.5285C14.1021 17.9801 15.1592 19.3825 15.3066 19.5795C15.4541 19.7762 17.3475 22.8498 20.3459 24.0322C22.8379 25.0149 23.345 24.8195 23.8859 24.7703C24.4268 24.7211 25.6312 24.0568 25.877 23.368C26.1229 22.6792 26.1229 22.0889 26.0492 21.9654C25.9754 21.8425 25.7787 21.7687 25.4837 21.6212C25.1886 21.4737 23.7383 20.7599 23.4679 20.6616C23.1974 20.5633 23.0007 20.5141 22.8041 20.8094C22.6074 21.1045 22.0424 21.7687 21.8702 21.9655C21.6981 22.1626 21.5261 22.1872 21.231 22.0397C20.936 21.8917 19.9859 21.5805 18.8587 20.5756C17.9818 19.7937 17.3898 18.8281 17.2176 18.5328C17.0455 18.2377 17.1992 18.0779 17.3471 17.9308C17.4796 17.7986 17.6422 17.5865 17.7897 17.4142C17.9369 17.242 17.9861 17.119 18.0844 16.9223C18.1827 16.7253 18.1336 16.553 18.0598 16.4055C17.9861 16.258 17.4128 14.7991 17.1504 14.2158Z" fill="white"/>
<defs>
<linearGradient id="paint0_linear_311_10533" x1="20.0516" y1="31.1641" x2="20.0516" y2="7.34572" gradientUnits="userSpaceOnUse">
<stop stop-color="#F9F9F9"/>
<stop offset="1" stop-color="white"/>
</linearGradient>
</defs>
</svg>
