<svg width="39" height="39" viewBox="0 0 39 39" fill="none" xmlns="http://www.w3.org/2000/svg">
<path d="M0 18.72C0 9.89531 0 5.48297 2.74148 2.74148C5.48297 0 9.89531 0 18.72 0H20.28C29.1047 0 33.517 0 36.2585 2.74148C39 5.48297 39 9.89531 39 18.72V20.28C39 29.1047 39 33.517 36.2585 36.2585C33.517 39 29.1047 39 20.28 39H18.72C9.89531 39 5.48297 39 2.74148 36.2585C0 33.517 0 29.1047 0 20.28V18.72Z" fill="#333333"/>
<path d="M20.7515 28.097C11.8627 28.097 6.79277 22.0033 6.58154 11.8633H11.034C11.1803 19.3058 14.4627 22.4583 17.0627 23.1083V11.8633H21.2553V18.282C23.8228 18.0057 26.52 15.0808 27.43 11.8633H31.6226C30.9239 15.8283 27.9989 18.7533 25.9189 19.9557C27.9989 20.9307 31.3303 23.482 32.5978 28.097H27.9826C26.9914 25.0095 24.5216 22.6208 21.2553 22.2957V28.097H20.7515Z" fill="white"/>
</svg>
