<svg width="40" height="39" viewBox="0 0 40 39" fill="none" xmlns="http://www.w3.org/2000/svg">
<path d="M0.5 18.72C0.5 9.89531 0.5 5.48297 3.24148 2.74148C5.98297 0 10.3953 0 19.22 0H20.78C29.6047 0 34.017 0 36.7585 2.74148C39.5 5.48297 39.5 9.89531 39.5 18.72V20.28C39.5 29.1047 39.5 33.517 36.7585 36.2585C34.017 39 29.6047 39 20.78 39H19.22C10.3953 39 5.98297 39 3.24148 36.2585C0.5 33.517 0.5 29.1047 0.5 20.28V18.72Z" fill="#333333"/>
<path d="M20.6861 25.1442C20.8383 25.2965 20.9239 25.5031 20.9239 25.7185C20.9239 25.9339 20.8383 26.1405 20.6861 26.2928L19.6766 27.3085C18.6089 28.3754 17.1612 28.9745 15.6519 28.974C14.1425 28.9736 12.6952 28.3735 11.6282 27.3059C10.5613 26.2383 9.96217 24.7906 9.96265 23.2812C9.96312 21.7719 10.5632 20.3245 11.6308 19.2576L14.0805 16.8079C15.1059 15.7816 16.4848 15.186 17.935 15.143C19.3852 15.0999 20.7969 15.6127 21.8815 16.5763C21.9615 16.6473 22.0268 16.7333 22.0736 16.8295C22.1203 16.9257 22.1477 17.0301 22.1541 17.1369C22.1605 17.2436 22.1459 17.3506 22.1109 17.4517C22.076 17.5528 22.0215 17.646 21.9505 17.726C21.8796 17.8061 21.7936 17.8713 21.6974 17.9181C21.6012 17.9649 21.4968 17.9923 21.39 17.9987C21.2832 18.0051 21.1763 17.9904 21.0752 17.9555C20.9741 17.9206 20.8809 17.8661 20.8009 17.7951C20.0263 17.1072 19.0181 16.7412 17.9826 16.772C16.9472 16.8028 15.9625 17.228 15.2302 17.9606L12.7805 20.4073C12.0184 21.1693 11.5903 22.2028 11.5903 23.2805C11.5903 24.3581 12.0184 25.3917 12.7805 26.1537C13.5425 26.9157 14.576 27.3438 15.6537 27.3438C16.7313 27.3438 17.7649 26.9157 18.5269 26.1537L19.5364 25.1442C19.6119 25.0686 19.7015 25.0087 19.8001 24.9678C19.8987 24.9269 20.0045 24.9059 20.1112 24.9059C20.218 24.9059 20.3238 24.9269 20.4224 24.9678C20.521 25.0087 20.6106 25.0686 20.6861 25.1442ZM27.8036 11.1285C26.7358 10.0632 25.2891 9.46484 23.7807 9.46484C22.2723 9.46484 20.8256 10.0632 19.7578 11.1285L18.7483 12.1391C18.596 12.2915 18.5104 12.4983 18.5105 12.7138C18.5106 12.9293 18.5963 13.1359 18.7488 13.2883C18.9012 13.4406 19.108 13.5261 19.3235 13.526C19.539 13.5259 19.7456 13.4402 19.898 13.2878L20.9075 12.2782C21.6695 11.5162 22.703 11.0881 23.7807 11.0881C24.8584 11.0881 25.8919 11.5162 26.6539 12.2782C27.4159 13.0402 27.844 14.0738 27.844 15.1514C27.844 16.2291 27.4159 17.2626 26.6539 18.0246L24.2042 20.4763C23.4714 21.2086 22.4866 21.6332 21.4511 21.6634C20.4156 21.6936 19.4077 21.3271 18.6335 20.6388C18.4719 20.4955 18.26 20.4223 18.0444 20.4353C17.8288 20.4482 17.6271 20.5463 17.4838 20.7079C17.3405 20.8695 17.2673 21.0814 17.2802 21.2971C17.2932 21.5127 17.3913 21.7143 17.5529 21.8576C18.6372 22.8215 20.0488 23.3346 21.499 23.292C22.9491 23.2493 24.3282 22.6541 25.3539 21.6281L27.8036 19.1784C28.8696 18.1105 29.4683 16.6633 29.4683 15.1545C29.4683 13.6456 28.8696 12.1984 27.8036 11.1306V11.1285Z" fill="white"/>
</svg>
