<svg width="40" height="39" viewBox="0 0 40 39" fill="none" xmlns="http://www.w3.org/2000/svg">
<path d="M0.5 18.72C0.5 9.89531 0.5 5.48297 3.24148 2.74148C5.98297 0 10.3953 0 19.22 0H20.78C29.6047 0 34.017 0 36.7585 2.74148C39.5 5.48297 39.5 9.89531 39.5 18.72V20.28C39.5 29.1047 39.5 33.517 36.7585 36.2585C34.017 39 29.6047 39 20.78 39H19.22C10.3953 39 5.98297 39 3.24148 36.2585C0.5 33.517 0.5 29.1047 0.5 20.28V18.72Z" fill="#333333"/>
<g clip-path="url(#clip0_314_6652)">
<path d="M25.1974 13.6978C25.4439 13.4631 25.772 13.3334 26.1123 13.336C26.4527 13.3386 26.7788 13.4732 27.0217 13.7116C27.2646 13.95 27.4055 14.2735 27.4145 14.6137C27.4234 14.954 27.2999 15.2844 27.0699 15.5353L20.0874 24.2678C19.9673 24.3972 19.8224 24.5009 19.6613 24.573C19.5002 24.645 19.3263 24.6838 19.1498 24.6871C18.9734 24.6904 18.7981 24.658 18.6345 24.592C18.4708 24.526 18.3222 24.4276 18.1974 24.3028L13.5669 19.6723C13.438 19.5522 13.3345 19.4073 13.2628 19.2463C13.1911 19.0853 13.1525 18.9115 13.1494 18.7353C13.1463 18.559 13.1787 18.384 13.2447 18.2205C13.3107 18.0571 13.409 17.9087 13.5336 17.784C13.6582 17.6594 13.8067 17.5611 13.9701 17.4951C14.1335 17.4291 14.3086 17.3967 14.4848 17.3998C14.6611 17.4029 14.8349 17.4415 14.9959 17.5132C15.1569 17.585 15.3018 17.6884 15.4219 17.8173L19.0864 21.4801L25.1642 13.7363L25.1974 13.6978Z" fill="white"/>
</g>
<defs>
<clipPath id="clip0_314_6652">
<rect width="26" height="26" fill="white" transform="translate(6.71729 6.21875)"/>
</clipPath>
</defs>
</svg>
