<?xml version="1.0" encoding="utf-8"?><svg viewBox="0 0 133 174" xmlns="http://www.w3.org/2000/svg" xmlns:xlink="http://www.w3.org/1999/xlink"><style>:root>svg{display:none}:root>svg:target{display:block}</style><svg fill="none" viewBox="0 0 46 116" id="banner__down" xmlns="http://www.w3.org/2000/svg"><path d="M26 3.5a3 3 0 10-6 0h6zm-5.121 111.121a3 3 0 004.242 0l19.092-19.092a3 3 0 10-4.242-4.242L23 108.257 6.03 91.287a3 3 0 10-4.243 4.242l19.092 19.092zM20 3.5v109h6V3.5h-6z" fill="currentColor"/></svg><svg fill="none" viewBox="0 0 70 86" id="header_logo" xmlns="http://www.w3.org/2000/svg"><path fill-rule="evenodd" clip-rule="evenodd" d="M43.268 82.904l20.816-.013-.135-62.969L43.27 4.665v78.24zm6.894-8.69l-.01-51.282 6.559 4.302v46.98h-6.55z" fill="#5E5E5E" stroke="#2B2A29" stroke-width=".651" stroke-miterlimit="22.926"/><path clip-rule="evenodd" d="M30.342 21.002l-13.96 6.25v17.723l13.96-3.425V21.002z" stroke="#2B2A29" stroke-width=".651" stroke-miterlimit="22.926"/><path fill-rule="evenodd" clip-rule="evenodd" d="M16.545 82.986V56.107l24.435-5.222-.02-46.117L4.827 21.856v61.13h11.719zm13.787-61.922l-13.96 6.25v17.722l13.96-3.424V21.064z" fill="#333" stroke="#2B2A29" stroke-width=".651" stroke-miterlimit="22.926"/><path fill-rule="evenodd" clip-rule="evenodd" d="M27.585 64.624l13.385-2.137.004-9.28-22.351 4.566v25.153h22.346v-8.669H27.586v-9.633z" fill="#333" stroke="#2B2A29" stroke-width=".651" stroke-miterlimit="22.926"/><path d="M16.382 27.252l13.96 4.024M56.711 27.232l-6.558 2.227" stroke="#2B2A29" stroke-width=".651" stroke-miterlimit="22.926"/><path d="M.173 21.665L42.235 1l26.526 19.94" stroke="#2B2A29" stroke-width=".517" stroke-miterlimit="22.926"/><path d="M40.973 53.207l4.18-.91" stroke="#2B2A29" stroke-width=".651" stroke-miterlimit="22.926"/><path d="M70 85l-70-.002" stroke="#2B2A29" stroke-width=".517" stroke-miterlimit="22.926"/><path d="M18.623 57.773l-3.349.742M18.623 57.775V54.63M40.973 53.207v-3.67M40.97 74.258h4.237M40.97 62.488l3.978-.709M40.97 62.488v3.123M40.97 74.257v-3.318M56.694 27.137v-2.032M50.102 22.908v-2.053M50.161 74.213H47.73M59.363 74.213h-2.652v2.121M50.161 74.213v1.993M30.342 21.003l2.997-1.347M16.383 27.252l-2.777 1.222M30.342 21.001v-2.716M16.382 27.253v-2.888M30.342 44.228V41.55l2.845-.757M16.382 47.01v-2.035l-2.854.76M47.947 21.54l10.642 6.848" stroke="#2B2A29" stroke-width=".651" stroke-miterlimit="22.926"/></svg><svg fill="none" viewBox="0 0 16 16" id="icon_arrow_down" xmlns="http://www.w3.org/2000/svg"><path d="M1.636 5.292a1 1 0 011.414 0L8 10.242l4.95-4.95a1 1 0 011.414 1.414l-5.657 5.657a1 1 0 01-1.414 0L1.636 6.707a1 1 0 010-1.414z" fill="currentColor"/></svg><svg fill="none" viewBox="0 0 40 40" id="icon_cross" xmlns="http://www.w3.org/2000/svg"><path fill="currentColor" d="M.81 34.14L33.807 1.143l4.714 4.714L5.524 38.855z"/><path fill="currentColor" d="M33.807 38.854L.808 5.855l4.715-4.714L38.52 34.14z"/></svg><svg fill="none" viewBox="0 0 26 26" id="icon_download" xmlns="http://www.w3.org/2000/svg"><path d="M21.126 19.502v3.25H4.876v-3.25H3.251v3.25a1.625 1.625 0 001.625 1.625h16.25a1.625 1.625 0 001.625-1.625v-3.25h-1.625z" fill="currentColor"/><path d="M21.126 11.377l-1.146-1.146-6.167 6.16V1.626h-1.625V16.39l-6.166-6.159-1.146 1.146 8.125 8.125 8.125-8.125z" fill="currentColor"/></svg><svg fill="none" viewBox="0 0 29 29" id="icon_paperclip" xmlns="http://www.w3.org/2000/svg"><path d="M23.59 14.02a.68.68 0 010 .962l-9.296 9.289a6.118 6.118 0 11-8.65-8.654L16.89 4.207a4.305 4.305 0 016.09 6.086L11.735 21.698a2.493 2.493 0 01-3.528-3.522l9.434-9.591a.68.68 0 01.97.954l-9.435 9.596a1.134 1.134 0 001.599 1.606L22.016 9.335a2.946 2.946 0 00-4.162-4.169L6.607 16.571a4.758 4.758 0 106.726 6.734l9.295-9.29a.68.68 0 01.962.005z" fill="currentColor"/></svg><svg fill="none" viewBox="0 0 20 20" id="icon_push_up" xmlns="http://www.w3.org/2000/svg"><path d="M6.19 10.003L10 6.193m0 0l3.81 3.81M10 6.193V16.67M3.333 3.336h13.334" stroke="currentColor" stroke-width="2" stroke-linecap="round" stroke-linejoin="round"/></svg><svg fill="none" viewBox="0 0 40 40" id="icon_search" xmlns="http://www.w3.org/2000/svg"><path fill-rule="evenodd" clip-rule="evenodd" d="M17.5 3.332a14.167 14.167 0 108.77 25.293l6.087 6.087a1.666 1.666 0 002.356-2.357l-6.086-6.086A14.167 14.167 0 0017.5 3.332zM6.667 17.499a10.833 10.833 0 1121.666 0 10.833 10.833 0 01-21.666 0z" fill="currentColor"/></svg><svg fill="none" viewBox="0 0 20 20" id="icon_share" xmlns="http://www.w3.org/2000/svg"><path d="M15 18.33a2.41 2.41 0 01-1.77-.728 2.411 2.411 0 01-.73-1.771c0-.098.007-.198.02-.303.015-.104.036-.198.063-.28L6.708 11.83a2.75 2.75 0 01-.791.49 2.402 2.402 0 01-.917.176 2.411 2.411 0 01-1.77-.729 2.41 2.41 0 01-.73-1.77c0-.695.243-1.285.73-1.771A2.41 2.41 0 015 7.497c.32 0 .625.06.917.178.291.118.555.281.791.49l5.875-3.418a1.539 1.539 0 01-.062-.28 2.28 2.28 0 01-.021-.303c0-.694.243-1.285.73-1.77a2.41 2.41 0 011.77-.73 2.41 2.41 0 011.77.73c.487.485.73 1.076.73 1.77 0 .695-.243 1.285-.73 1.77a2.41 2.41 0 01-1.77.73c-.32 0-.625-.059-.917-.177a2.728 2.728 0 01-.791-.49L7.417 9.414c.027.083.048.177.062.282a2.29 2.29 0 010 .604 1.51 1.51 0 01-.062.28l5.875 3.417c.236-.208.5-.371.791-.489a2.44 2.44 0 01.917-.177c.694 0 1.285.243 1.77.729.487.486.73 1.076.73 1.77 0 .695-.243 1.286-.73 1.772a2.41 2.41 0 01-1.77.729z" fill="currentColor"/></svg><svg fill="none" viewBox="0 0 60 60" id="icon_telegram_fill" xmlns="http://www.w3.org/2000/svg"><path d="M30 5C16.2 5 5 16.2 5 30s11.2 25 25 25 25-11.2 25-25S43.8 5 30 5zm11.6 17c-.375 3.95-2 13.55-2.825 17.975-.35 1.875-1.05 2.5-1.7 2.575-1.45.125-2.55-.95-3.95-1.875-2.2-1.45-3.45-2.35-5.575-3.75-2.475-1.625-.875-2.525.55-3.975.375-.375 6.775-6.2 6.9-6.725a.5.5 0 00-.125-.45c-.15-.125-.35-.075-.525-.05-.225.05-3.725 2.375-10.55 6.975-1 .675-1.9 1.025-2.7 1-.9-.025-2.6-.5-3.875-.925-1.575-.5-2.8-.775-2.7-1.65.05-.45.675-.9 1.85-1.375 7.3-3.175 12.15-5.275 14.575-6.275 6.95-2.9 8.375-3.4 9.325-3.4.2 0 .675.05.975.3.25.2.325.475.35.675-.025.15.025.6 0 .95z" fill="#9C9C9C"/></svg><svg fill="none" viewBox="0 0 60 60" id="icon_whatsapp_fill" xmlns="http://www.w3.org/2000/svg"><path d="M30.003 5c13.807 0 25 11.192 25 25 0 13.807-11.193 25-25 25a24.885 24.885 0 01-12.575-3.388L5.013 55l3.38-12.42A24.883 24.883 0 015.003 30c0-13.808 11.192-25 25-25zm-8.52 13.25l-.5.02c-.324.02-.64.105-.93.25a3.233 3.233 0 00-.735.57c-.3.282-.47.527-.652.765a6.825 6.825 0 00-1.416 4.195c.006 1.225.326 2.418.826 3.532 1.022 2.255 2.704 4.643 4.924 6.855.535.533 1.06 1.068 1.625 1.566a23.619 23.619 0 009.6 5.114l1.42.218c.463.025.925-.01 1.39-.032a4.975 4.975 0 002.083-.578c.327-.169.647-.352.957-.55 0 0 .108-.07.313-.225.337-.25.545-.428.825-.72a2.87 2.87 0 00.525-.755c.195-.407.39-1.185.47-1.833.06-.495.043-.765.035-.932-.01-.267-.233-.545-.475-.663l-1.455-.652s-2.175-.948-3.505-1.553a1.242 1.242 0 00-.44-.102 1.205 1.205 0 00-.945.317c-.013-.005-.18.138-1.988 2.328a.875.875 0 01-.92.325 3.572 3.572 0 01-.477-.165c-.31-.13-.417-.18-.63-.27a15.06 15.06 0 01-3.938-2.508c-.314-.275-.607-.575-.907-.865a15.74 15.74 0 01-2.55-3.17l-.148-.237a2.304 2.304 0 01-.255-.512c-.095-.368.153-.663.153-.663s.607-.665.89-1.025c.275-.35.508-.69.658-.933.294-.474.387-.962.232-1.34-.7-1.71-1.425-3.412-2.17-5.102-.148-.335-.585-.575-.983-.623-.134-.015-.27-.03-.405-.04a8.467 8.467 0 00-1.007.01l.505-.017z" fill="#9C9C9C"/></svg><svg fill="none" viewBox="0 0 131 159" id="logo_footer" xmlns="http://www.w3.org/2000/svg"><g opacity=".59" stroke="#2B2A29" stroke-miterlimit="22.926"><path fill-rule="evenodd" clip-rule="evenodd" d="M80.973 154.276l38.956-.024-.252-117.841L80.973 7.855v146.421zm12.901-16.263l-.02-95.971 12.276 8.051v87.92H93.874z" fill="#5E5E5E" stroke-width=".651"/><path clip-rule="evenodd" d="M56.782 38.434L30.658 50.13v33.167l26.124-6.409V38.434z" stroke-width=".651"/><path fill-rule="evenodd" clip-rule="evenodd" d="M30.963 154.431v-50.302l45.728-9.773-.036-86.305L9.031 40.03V154.43h21.932zM56.765 38.548L30.64 50.244v33.167l26.125-6.409V38.548z" fill="#333" stroke-width=".651"/><path fill-rule="evenodd" clip-rule="evenodd" d="M51.623 120.069l25.05-3.998.006-17.368-41.827 8.546v47.071l41.818-.001.002-16.222H51.623v-18.028z" fill="#333" stroke-width=".651"/><path d="M30.657 50.129l26.125 7.53M106.13 50.094L93.857 54.26" stroke-width=".651"/><path d="M.323 39.673L79.039 1l49.642 37.315" stroke-width=".517"/><path d="M76.678 98.703L84.502 97" stroke-width=".651"/><path d="M131 158.199l-131-.004" stroke-width=".517"/><path d="M34.852 107.25l-6.267 1.387M34.852 107.25v-5.883M76.678 98.7v-6.868M76.672 138.094h7.93M76.672 116.068l7.445-1.326M76.672 116.07v5.844M76.672 138.099v-6.208M106.099 49.91v-3.8M93.761 41.998v-3.842M93.874 138.016h-4.552M111.094 138.016h-4.964v3.969M93.873 138.016v3.729M56.782 38.434l5.61-2.52M30.659 50.129l-5.195 2.287M56.782 38.43v-5.082M30.657 50.13v-5.403M56.782 81.897v-5.01l5.325-1.418M30.659 87.106v-3.81l-5.343 1.423M89.73 39.438l19.916 12.818" stroke-width=".651"/></g></svg><svg fill="none" viewBox="0 0 133 174" id="map_placemark" xmlns="http://www.w3.org/2000/svg"><path d="M133 66.5c0 36.727-39 74.5-66.5 107C38 143.5 0 103.227 0 66.5 0 29.773 29.773 0 66.5 0 103.227 0 133 29.773 133 66.5z" fill="#333"/><path fill-rule="evenodd" clip-rule="evenodd" d="M75.268 94.904l20.816-.013-.135-62.969-20.681-15.258v78.24zm6.893-8.69l-.01-51.282 6.56 4.302v46.98h-6.55z" fill="#F8FAFC" stroke="#2B2A29" stroke-width=".651" stroke-miterlimit="22.926"/><path clip-rule="evenodd" d="M62.342 33.004l-13.96 6.25v17.723l13.96-3.425V33.004z" stroke="#2B2A29" stroke-width=".651" stroke-miterlimit="22.926"/><path fill-rule="evenodd" clip-rule="evenodd" d="M48.545 94.984V68.105l24.435-5.222-.019-46.117-36.135 17.088v61.13h11.72zm13.788-61.922l-13.96 6.25v17.723l13.96-3.425V33.062z" fill="#F8FAFC" stroke="#2B2A29" stroke-width=".651" stroke-miterlimit="22.926"/><path fill-rule="evenodd" clip-rule="evenodd" d="M59.585 76.624l13.385-2.137.004-9.28-22.351 4.567v25.152h22.346v-8.669H59.586v-9.633z" fill="#F8FAFC" stroke="#2B2A29" stroke-width=".651" stroke-miterlimit="22.926"/><path d="M48.382 39.25l13.96 4.024M88.71 39.234l-6.558 2.227" stroke="#F8FAFC" stroke-width=".651" stroke-miterlimit="22.926"/><path d="M32.173 33.665L74.235 13l26.526 19.94" stroke="#F8FAFC" stroke-width=".517" stroke-miterlimit="22.926"/><path d="M72.973 65.207l4.18-.91" stroke="#2B2A29" stroke-width=".651" stroke-miterlimit="22.926"/><path d="M102 96.998l-70-.002" stroke="#F8FAFC" stroke-width=".517" stroke-miterlimit="22.926"/><path d="M50.623 69.773l-3.349.742M50.623 69.772V66.63M72.973 65.21v-3.67M72.97 86.258h4.237M72.97 74.49l3.978-.709M72.97 74.488v3.123M72.97 86.259V82.94M88.693 39.137v-2.032M82.102 34.908v-2.053M82.161 86.21H79.73M91.363 86.21h-2.652v2.122M82.161 86.21v1.994M62.342 33.003l2.997-1.347M48.383 39.25l-2.777 1.222M62.342 33.001v-2.716M48.382 39.255v-2.888M62.342 56.228V53.55l2.845-.757M48.382 59.012v-2.035l-2.855.76M79.947 33.54l10.642 6.848" stroke="#2B2A29" stroke-width=".651" stroke-miterlimit="22.926"/></svg><svg fill="none" viewBox="0 0 40 39" id="share_link" xmlns="http://www.w3.org/2000/svg"><path d="M.5 18.72C.5 9.895.5 5.483 3.241 2.741 5.983 0 10.395 0 19.22 0h1.56c8.825 0 13.237 0 15.978 2.741C39.5 5.483 39.5 9.895 39.5 18.72v1.56c0 8.825 0 13.237-2.742 15.978C34.017 39 29.605 39 20.78 39h-1.56c-8.825 0-13.237 0-15.979-2.742C.5 33.517.5 29.105.5 20.28v-1.56z" fill="#333"/><path d="M20.686 25.144a.813.813 0 010 1.149l-1.01 1.015a5.691 5.691 0 01-8.045-8.05l2.45-2.45a5.687 5.687 0 017.8-.232.816.816 0 01-1.08 1.22 4.062 4.062 0 00-5.57.165l-2.45 2.446a4.063 4.063 0 105.746 5.747l1.01-1.01a.813.813 0 011.15 0zm7.118-14.015a5.696 5.696 0 00-8.046 0l-1.01 1.01a.813.813 0 101.15 1.149l1.01-1.01a4.063 4.063 0 015.746 5.747l-2.45 2.451a4.062 4.062 0 01-5.57.163.814.814 0 10-1.081 1.219 5.688 5.688 0 007.8-.23l2.45-2.45a5.696 5.696 0 000-8.047v-.002z" fill="#fff"/></svg><svg fill="none" viewBox="0 0 40 39" id="share_link_done" xmlns="http://www.w3.org/2000/svg"><path d="M.5 18.72C.5 9.895.5 5.483 3.241 2.741 5.983 0 10.395 0 19.22 0h1.56c8.825 0 13.237 0 15.978 2.741C39.5 5.483 39.5 9.895 39.5 18.72v1.56c0 8.825 0 13.237-2.742 15.978C34.017 39 29.605 39 20.78 39h-1.56c-8.825 0-13.237 0-15.979-2.742C.5 33.517.5 29.105.5 20.28v-1.56z" fill="#333"/><g clip-path="url(#oclip0_314_6652)"><path d="M25.197 13.698a1.312 1.312 0 011.873 1.837l-6.983 8.733a1.313 1.313 0 01-1.89.035l-4.63-4.63a1.312 1.312 0 111.855-1.856l3.664 3.663 6.078-7.744.033-.038z" fill="#fff"/></g><defs><clipPath id="oclip0_314_6652"><path fill="#fff" transform="translate(6.717 6.219)" d="M0 0h26v26H0z"/></clipPath></defs></svg><svg fill="none" viewBox="0 0 40 39" id="share_tg" xmlns="http://www.w3.org/2000/svg"><path d="M.5 18.72C.5 9.895.5 5.483 3.241 2.741 5.983 0 10.395 0 19.22 0h1.56c8.825 0 13.237 0 15.978 2.741C39.5 5.483 39.5 9.895 39.5 18.72v1.56c0 8.825 0 13.237-2.742 15.978C34.017 39 29.605 39 20.78 39h-1.56c-8.825 0-13.237 0-15.979-2.742C.5 33.517.5 29.105.5 20.28v-1.56z" fill="#333"/><path d="M20 32.78c7.336 0 13.282-5.947 13.282-13.283 0-7.335-5.946-13.282-13.282-13.282S6.717 12.162 6.717 19.497c0 7.336 5.947 13.283 13.283 13.283z" fill="#fff"/><path d="M20 31.485c6.62 0 11.987-5.366 11.987-11.986 0-6.62-5.367-11.987-11.987-11.987S8.013 12.878 8.013 19.498c0 6.62 5.367 11.987 11.987 11.987z" fill="#333"/><path d="M12.245 19.384l8.945-3.686c.883-.383 3.877-1.612 3.877-1.612s1.382-.537 1.267.768c-.038.537-.345 2.419-.652 4.453l-.96 6.027s-.077.883-.73 1.037c-.652.153-1.727-.538-1.92-.691-.153-.116-2.878-1.843-3.876-2.688-.27-.23-.576-.69.038-1.228a146.907 146.907 0 004.03-3.839c.462-.46.922-1.535-.997-.23l-5.413 3.647s-.614.384-1.766.038a79.859 79.859 0 01-2.495-.806s-.922-.576.652-1.19z" fill="#fff"/></svg><svg fill="none" viewBox="0 0 39 39" id="share_vk" xmlns="http://www.w3.org/2000/svg"><path d="M0 18.72C0 9.895 0 5.483 2.741 2.741 5.483 0 9.895 0 18.72 0h1.56c8.825 0 13.237 0 15.978 2.741C39 5.483 39 9.895 39 18.72v1.56c0 8.825 0 13.237-2.742 15.978C33.517 39 29.105 39 20.28 39h-1.56c-8.825 0-13.237 0-15.979-2.742C0 33.517 0 29.105 0 20.28v-1.56z" fill="#333"/><path d="M20.752 28.097c-8.89 0-13.96-6.094-14.17-16.234h4.452c.146 7.443 3.429 10.595 6.029 11.245V11.863h4.192v6.419c2.568-.276 5.265-3.201 6.175-6.419h4.193c-.7 3.965-3.624 6.89-5.704 8.093 2.08.975 5.411 3.526 6.679 8.141h-4.615c-.992-3.088-3.461-5.476-6.728-5.801v5.801h-.503z" fill="#fff"/></svg><svg fill="none" viewBox="0 0 39 39" id="share_wa" xmlns="http://www.w3.org/2000/svg"><path d="M0 18.72C0 9.895 0 5.483 2.741 2.741 5.483 0 9.895 0 18.72 0h1.56c8.825 0 13.237 0 15.978 2.741C39 5.483 39 9.895 39 18.72v1.56c0 8.825 0 13.237-2.742 15.978C33.517 39 29.105 39 20.28 39h-1.56c-8.825 0-13.237 0-15.979-2.742C0 33.517 0 29.105 0 20.28v-1.56z" fill="#07F"/><path d="M0 18.72C0 9.895 0 5.483 2.741 2.741 5.483 0 9.895 0 18.72 0h1.56c8.825 0 13.237 0 15.978 2.741C39 5.483 39 9.895 39 18.72v1.56c0 8.825 0 13.237-2.742 15.978C33.517 39 29.105 39 20.28 39h-1.56c-8.825 0-13.237 0-15.979-2.742C0 33.517 0 29.105 0 20.28v-1.56z" fill="#333"/><path d="M8.702 19.154c0 2.007.524 3.968 1.521 5.696l-1.617 5.904 6.042-1.584a11.395 11.395 0 005.447 1.386h.005c6.281 0 11.394-5.111 11.397-11.394a11.322 11.322 0 00-3.335-8.06 11.325 11.325 0 00-8.063-3.342c-6.282 0-11.395 5.111-11.397 11.394z" fill="#333"/><path d="M8.295 19.148c-.001 2.08.542 4.11 1.576 5.9l-1.675 6.116 6.258-1.641a11.797 11.797 0 005.642 1.437h.005c6.507 0 11.804-5.296 11.807-11.803a11.73 11.73 0 00-3.455-8.35A11.733 11.733 0 0020.1 7.346c-6.508 0-11.804 5.294-11.806 11.802zm3.727 5.592l-.234-.371a9.783 9.783 0 01-1.5-5.22c.002-5.41 4.404-9.81 9.817-9.81a9.75 9.75 0 016.938 2.877 9.75 9.75 0 012.871 6.94c-.002 5.41-4.404 9.81-9.813 9.81h-.003a9.8 9.8 0 01-4.995-1.367l-.359-.213-3.714.974.992-3.62z" fill="url(#rpaint0_linear_311_10533)"/><path fill-rule="evenodd" clip-rule="evenodd" d="M17.15 14.216c-.22-.491-.453-.501-.663-.51-.172-.007-.37-.007-.566-.007-.196 0-.516.074-.786.37-.27.294-1.033 1.008-1.033 2.46 0 1.451 1.057 2.854 1.205 3.05.147.197 2.04 3.27 5.039 4.453 2.492.983 2.999.788 3.54.738.54-.049 1.745-.713 1.991-1.402s.246-1.28.172-1.403c-.074-.122-.27-.196-.565-.344-.295-.147-1.746-.861-2.016-.96-.27-.098-.467-.147-.664.148-.197.296-.762.96-.934 1.156-.172.198-.344.222-.639.075-.295-.148-1.245-.46-2.372-1.464-.877-.782-1.47-1.748-1.641-2.043-.172-.295-.019-.455.13-.602.132-.132.294-.345.442-.517.147-.172.196-.295.294-.492.099-.197.05-.369-.024-.517-.074-.147-.647-1.606-.91-2.19z" fill="#fff"/><defs><linearGradient id="rpaint0_linear_311_10533" x1="20.052" y1="31.164" x2="20.052" y2="7.346" gradientUnits="userSpaceOnUse"><stop stop-color="#F9F9F9"/><stop offset="1" stop-color="#fff"/></linearGradient></defs></svg></svg>